<?xml version="1.0" encoding="UTF-8" standalone="no"?>
<!DOCTYPE svg PUBLIC "-//W3C//DTD SVG 1.1//EN"
 "http://www.w3.org/Graphics/SVG/1.1/DTD/svg11.dtd">
<!-- Generated by graphviz version 12.2.1 (0)
 -->
<!-- Title: campus Pages: 1 -->
<svg width="240pt" height="133pt"
 viewBox="0.00 0.00 239.80 132.50" xmlns="http://www.w3.org/2000/svg" xmlns:xlink="http://www.w3.org/1999/xlink">
<g id="graph0" class="graph" transform="scale(1 1) rotate(0) translate(4 128.5)">
<title>campus</title>
<polygon fill="white" stroke="none" points="-4,4 -4,-128.5 235.8,-128.5 235.8,4 -4,4"/>
<!-- Comp Sci -->
<g id="node1" class="node">
<title>Comp Sci</title>
<ellipse fill="none" stroke="black" cx="120" cy="-106.5" rx="48.28" ry="18"/>
<text text-anchor="middle" x="120" y="-101.45" font-family="Times,serif" font-size="14.00">Comp Sci</text>
</g>
<!-- Union South -->
<g id="node2" class="node">
<title>Union South</title>
<ellipse fill="none" stroke="black" cx="58" cy="-18" rx="58" ry="18"/>
<text text-anchor="middle" x="58" y="-12.95" font-family="Times,serif" font-size="14.00">Union South</text>
</g>
<!-- Comp Sci&#45;&gt;Union South -->
<g id="edge1" class="edge">
<title>Comp Sci&#45;&gt;Union South</title>
<path fill="none" stroke="black" d="M108.05,-88.82C99.19,-76.46 86.93,-59.36 76.77,-45.18"/>
<polygon fill="black" stroke="black" points="79.69,-43.24 71.02,-37.15 74,-47.32 79.69,-43.24"/>
<text text-anchor="middle" x="111.81" y="-57.2" font-family="Times,serif" font-size="14.00">15 sec</text>
</g>
<!-- Discovery -->
<g id="node3" class="node">
<title>Discovery</title>
<ellipse fill="none" stroke="black" cx="183" cy="-18" rx="48.79" ry="18"/>
<text text-anchor="middle" x="183" y="-12.95" font-family="Times,serif" font-size="14.00">Discovery</text>
</g>
<!-- Comp Sci&#45;&gt;Discovery -->
<g id="edge2" class="edge">
<title>Comp Sci&#45;&gt;Discovery</title>
<path fill="none" stroke="black" d="M132.15,-88.82C141.22,-76.38 153.77,-59.14 164.14,-44.91"/>
<polygon fill="black" stroke="black" points="166.95,-46.99 170,-36.85 161.29,-42.87 166.95,-46.99"/>
<text text-anchor="middle" x="174.4" y="-57.2" font-family="Times,serif" font-size="14.00">15 sec</text>
</g>
</g>
</svg>
